<mxfile host="www.draw.io" modified="2020-01-03T02:08:34.484Z" agent="Mozilla/5.0 (Windows NT 6.2; Win64; x64) AppleWebKit/537.36 (KHTML, like Gecko) Chrome/79.0.3945.88 Safari/537.36" etag="Lp3B8GTSQxi3UsmwHlLy" version="12.4.8" type="github">
  <diagram id="bsD2x_KO6xM0R5m1DpQU" name="Page-1">
    <mxGraphModel dx="773" dy="427" grid="1" gridSize="10" guides="1" tooltips="1" connect="1" arrows="1" fold="1" page="1" pageScale="1" pageWidth="827" pageHeight="1169" math="0" shadow="0">
      <root>
        <mxCell id="0"/>
        <mxCell id="1" parent="0"/>
        <mxCell id="wW9nk24ufCQ6Eqpu4SKE-22" value="" style="rounded=0;whiteSpace=wrap;html=1;" parent="1" vertex="1">
          <mxGeometry x="140" y="315" width="440" height="175" as="geometry"/>
        </mxCell>
        <mxCell id="wW9nk24ufCQ6Eqpu4SKE-6" value="" style="rounded=0;whiteSpace=wrap;html=1;" parent="1" vertex="1">
          <mxGeometry x="140" y="210" width="200" height="50" as="geometry"/>
        </mxCell>
        <mxCell id="wW9nk24ufCQ6Eqpu4SKE-2" value="Mars&lt;br&gt;（tcp）" style="rounded=0;whiteSpace=wrap;html=1;fillColor=#1ba1e2;strokeColor=#006EAF;fontColor=#ffffff;" parent="1" vertex="1">
          <mxGeometry x="368" y="100" width="90" height="40" as="geometry"/>
        </mxCell>
        <mxCell id="wW9nk24ufCQ6Eqpu4SKE-3" value="JSSDK&lt;br&gt;(websocket)" style="rounded=0;whiteSpace=wrap;html=1;fillColor=#1ba1e2;strokeColor=#006EAF;fontColor=#ffffff;" parent="1" vertex="1">
          <mxGeometry x="481" y="100" width="90" height="40" as="geometry"/>
        </mxCell>
        <mxCell id="wW9nk24ufCQ6Eqpu4SKE-4" value="comet" style="rounded=1;whiteSpace=wrap;html=1;fillColor=#60a917;strokeColor=#2D7600;fontColor=#ffffff;" parent="1" vertex="1">
          <mxGeometry x="150" y="220" width="80" height="30" as="geometry"/>
        </mxCell>
        <mxCell id="wW9nk24ufCQ6Eqpu4SKE-5" value="comet" style="rounded=1;whiteSpace=wrap;html=1;fillColor=#60a917;strokeColor=#2D7600;fontColor=#ffffff;" parent="1" vertex="1">
          <mxGeometry x="250" y="220" width="80" height="30" as="geometry"/>
        </mxCell>
        <mxCell id="wW9nk24ufCQ6Eqpu4SKE-7" value="IDC1:电信" style="text;html=1;strokeColor=none;fillColor=none;align=center;verticalAlign=middle;whiteSpace=wrap;rounded=0;" parent="1" vertex="1">
          <mxGeometry x="150" y="170" width="60" height="20" as="geometry"/>
        </mxCell>
        <mxCell id="wW9nk24ufCQ6Eqpu4SKE-9" value="" style="rounded=0;whiteSpace=wrap;html=1;" parent="1" vertex="1">
          <mxGeometry x="376" y="208" width="200" height="50" as="geometry"/>
        </mxCell>
        <mxCell id="wW9nk24ufCQ6Eqpu4SKE-10" value="comet" style="rounded=1;whiteSpace=wrap;html=1;fillColor=#60a917;strokeColor=#2D7600;fontColor=#ffffff;" parent="1" vertex="1">
          <mxGeometry x="386" y="218" width="80" height="30" as="geometry"/>
        </mxCell>
        <mxCell id="wW9nk24ufCQ6Eqpu4SKE-11" value="comet" style="rounded=1;whiteSpace=wrap;html=1;fillColor=#60a917;strokeColor=#2D7600;fontColor=#ffffff;" parent="1" vertex="1">
          <mxGeometry x="486" y="218" width="80" height="30" as="geometry"/>
        </mxCell>
        <mxCell id="wW9nk24ufCQ6Eqpu4SKE-12" value="IDC2:联通" style="text;html=1;strokeColor=none;fillColor=none;align=center;verticalAlign=middle;whiteSpace=wrap;rounded=0;" parent="1" vertex="1">
          <mxGeometry x="386" y="168" width="60" height="20" as="geometry"/>
        </mxCell>
        <mxCell id="wW9nk24ufCQ6Eqpu4SKE-17" value="logic" style="rounded=1;whiteSpace=wrap;html=1;fillColor=#f0a30a;strokeColor=#BD7000;fontColor=#ffffff;" parent="1" vertex="1">
          <mxGeometry x="330" y="330" width="80" height="30" as="geometry"/>
        </mxCell>
        <mxCell id="wW9nk24ufCQ6Eqpu4SKE-18" value="router" style="rounded=1;whiteSpace=wrap;html=1;fillColor=#f0a30a;strokeColor=#BD7000;fontColor=#ffffff;" parent="1" vertex="1">
          <mxGeometry x="170" y="410" width="80" height="30" as="geometry"/>
        </mxCell>
        <mxCell id="wW9nk24ufCQ6Eqpu4SKE-19" value="job" style="rounded=1;whiteSpace=wrap;html=1;fillColor=#f0a30a;strokeColor=#BD7000;fontColor=#ffffff;" parent="1" vertex="1">
          <mxGeometry x="170" y="330" width="80" height="30" as="geometry"/>
        </mxCell>
      </root>
    </mxGraphModel>
  </diagram>
</mxfile>
